    <svg
      width="154"
      height="28"
      viewBox="0 0 154 28"
      fill="none"
      xmlns="http://www.w3.org/2000/svg"
    >
      <path
        d="M17.6453 12.6497C17.846 12.6091 17.996 12.5787 18.1055 12.5564C17.4162 17.0757 16.743 22.7994 16.8039 24.6059C16.8343 25.5447 17.5196 26.2259 18.4279 26.2259C18.7077 26.2259 18.9855 26.159 19.2551 26.0272C23.3811 24.0159 25.9317 23.3671 30.1611 22.2946C31.1546 22.0411 31.4141 21.2058 31.333 20.5671C31.2398 19.819 30.6619 19.0627 29.7374 19.0627C29.5955 19.0627 29.4475 19.081 29.2994 19.1195C25.6803 20.0379 23.2534 20.6908 20.2446 21.9702C20.3115 21.2646 20.3966 20.4516 20.5 19.5493C21.086 19.308 21.6273 19.085 22.1383 18.8721C24.9545 17.7022 26.8157 16.9298 30.1591 16.0133C31.1526 15.7416 31.402 14.8921 31.3168 14.2474C31.2175 13.5175 30.6498 12.7774 29.7516 12.7774C29.5995 12.7774 29.4434 12.7977 29.2853 12.8423C25.9013 13.7709 24.0259 14.5495 21.1874 15.7295L20.9724 15.8187C21.2137 14.0527 21.4692 12.3557 21.6963 11.0277C24.0826 9.98552 26.2926 9.44417 29.7739 8.75279C30.5869 8.59059 31.0593 7.958 30.9803 7.13686C30.9032 6.36032 30.2889 5.53512 29.3015 5.53512C29.1839 5.53512 29.0663 5.54728 28.9467 5.56959C26.1973 6.11499 24.0705 6.60565 21.97 7.37408C21.9112 7.28081 21.8483 7.20174 21.7774 7.12875C21.4611 6.80637 21.0069 6.62187 20.5304 6.62187C19.9242 6.62187 19.1984 6.93411 18.9814 7.80999C18.9591 7.8992 18.9186 8.04721 18.8699 8.21752L18.8658 8.23577C18.7807 8.53382 18.6773 8.9008 18.6165 9.17451C18.1927 9.30427 16.6457 9.56988 15.1494 9.8294L15.0744 9.84156C13.3186 10.1437 11.3296 10.4863 10.0603 10.7762C10.0989 9.8071 10.1333 8.95351 10.1698 8.17089C10.1901 7.70051 10.2023 7.2139 10.2124 6.74149L10.2185 6.46778C11.6803 6.25286 13.1341 6.02781 14.8818 5.75612L14.9244 5.75004C16.8322 5.45402 18.9936 5.11948 21.0921 4.81941C21.453 4.76669 21.7713 4.5538 21.9943 4.21521C22.2498 3.8239 22.341 3.3008 22.2254 2.88313C22.0308 2.17755 21.4448 1.75786 20.6541 1.75786C20.5507 1.75786 20.4453 1.76597 20.3378 1.78016C18.3488 2.06401 16.3294 2.37828 14.3769 2.68038L14.2897 2.69457C12.9982 2.89529 11.731 3.09196 10.4354 3.2866C10.5105 2.79189 10.6037 2.35395 10.7233 1.95047C10.9018 1.34019 10.7091 0.904272 10.5145 0.64475C10.2185 0.247357 9.70553 0 9.17634 0C8.4586 0 7.90915 0.413613 7.7064 1.10702C7.48134 1.87545 7.33333 2.71282 7.24007 3.74685C5.44166 3.99421 3.84195 4.1929 2.3497 4.35105C1.43326 4.44634 0.816895 5.07487 0.816895 5.91427C0.816895 6.67864 1.53058 7.5748 2.4166 7.47748C3.84195 7.32744 5.3707 7.14091 7.088 6.90978C7.07989 7.15713 7.07178 7.40449 7.05962 7.64982C7.00487 8.80753 6.95216 10.0403 6.89133 11.644C6.2993 11.8306 5.75998 12.0151 5.24094 12.2077C4.55766 12.4611 4.06903 13.2924 4.15013 14.0608C4.21907 14.6995 4.65093 15.1374 5.30784 15.2307C5.75998 15.2936 6.07222 15.2875 6.45542 15.2064C6.5426 15.1881 6.646 15.1658 6.76766 15.1354L6.72508 16.3742C6.61356 19.5818 6.498 22.8988 6.31349 26.159C6.28916 26.5868 6.41487 26.9619 6.68047 27.2417C6.95621 27.5316 7.3678 27.6979 7.8098 27.6979C8.58228 27.6979 9.39126 27.1809 9.446 26.1935C9.63254 22.9069 9.74608 19.5777 9.85962 16.358L9.93261 14.3041C11.658 13.8601 15.5002 13.0836 17.3513 12.7085L17.6453 12.6497Z"
        fill="#DA254E"
      />
      <path
        d="M89.2349 18.6408C89.1416 17.8926 88.5638 17.1364 87.6392 17.1364C87.4953 17.1364 87.3493 17.1546 87.2013 17.1931C83.3997 18.1582 80.6625 18.8922 77.4712 20.2385C77.5219 19.5451 77.5969 18.73 77.6963 17.8136C77.7206 17.8054 77.7429 17.7973 77.7672 17.7872C78.7445 17.3857 79.5616 17.039 80.1009 16.8079C82.1406 15.9381 83.2639 15.4616 86.2727 14.6344C87.2662 14.3607 87.5176 13.5112 87.4284 12.8664C87.3311 12.1365 86.7613 11.3965 85.8631 11.3965C85.7111 11.3965 85.555 11.4188 85.3968 11.4613C82.3434 12.2987 81.21 12.7833 79.152 13.6592C78.8418 13.793 78.5134 13.9309 78.1585 14.0809C78.4039 12.3109 78.6817 10.5003 78.9473 8.96749C79.9914 8.52955 81.1248 8.22136 82.1953 7.95373C83.6531 7.58878 84.5554 7.43469 85.5975 7.25626L85.6097 7.25424C86.147 7.163 86.8161 7.04946 87.6717 6.8832C88.4847 6.72505 88.9592 6.09247 88.8801 5.27335C88.8051 4.49478 88.1887 3.66553 87.1952 3.66553C87.0797 3.66553 86.96 3.67769 86.8465 3.7C85.999 3.86625 85.1697 4.0021 84.3607 4.13794C82.7428 4.40557 81.0701 4.68334 79.4683 5.17806C79.3974 4.96719 79.2798 4.78066 79.1216 4.61846C78.8053 4.29811 78.3512 4.11361 77.8747 4.11361C77.2685 4.11361 76.5426 4.42585 76.3257 5.29971C76.2446 5.62614 76.1432 6.10463 76.0256 6.72708C75.3362 7.15894 74.7138 7.63541 74.1238 8.18081C73.627 8.637 73.475 9.24323 73.7102 9.84338C73.9616 10.4881 74.6266 10.9585 75.3018 10.9727C74.5962 15.5042 73.923 20.9866 74.1481 22.8418C74.2616 23.7785 74.9348 24.4314 75.7863 24.4314C76.056 24.4314 76.3317 24.3645 76.5994 24.2347C80.6889 22.2396 83.7829 21.455 88.063 20.3682C89.0565 20.1148 89.314 19.2795 89.2349 18.6408Z"
        fill="#DA254E"
      />
      <path
        d="M44.7001 26.5787C44.8826 24.3363 45.1583 21.7228 45.426 19.1965L45.432 19.1418C45.6186 17.3697 45.8132 15.5389 45.9673 13.8865C46.1356 12.0799 46.3221 10.1295 46.5593 8.11007C46.5817 7.92557 46.6019 7.73903 46.6222 7.5525C46.7317 6.58132 46.8432 5.57567 47.0845 4.62071C47.1919 4.19696 47.1068 3.7793 46.8473 3.44476C46.5533 3.06966 46.0606 2.83447 45.5598 2.83447C45.0124 2.83447 44.544 3.1021 44.2743 3.57046C43.6559 4.64504 43.1045 5.75207 42.5692 6.82057C42.2326 7.49168 41.8515 8.25402 41.4683 8.97176C40.7586 10.3018 40.1565 11.3622 39.5705 12.307C39.39 12.597 39.2137 12.8666 39.0332 13.1302C38.7352 12.3111 38.0458 10.318 37.618 8.80551C37.3341 7.80391 37.0097 6.81043 36.6975 5.84736C36.5515 5.39523 36.4055 4.94512 36.2636 4.50109C36.2494 4.37336 36.2312 4.25982 36.2089 4.14222L36.2028 4.12397C36.1785 4.05706 36.0994 3.82593 36.0305 3.69008C35.7993 3.242 35.2985 2.96423 34.7207 2.96423C34.447 2.96423 34.1834 3.02709 33.9543 3.14671C33.786 3.23389 33.638 3.35757 33.5163 3.50558C33.4798 3.54208 33.4373 3.59074 33.3987 3.64345C33.2629 3.82593 33.1777 4.03882 33.1494 4.25373C33.0318 4.68154 33.0054 5.14584 32.9811 5.55743C32.9689 5.75612 32.9567 5.96293 32.9344 6.12919C32.7013 7.86474 32.5533 9.71383 32.458 12.1266C32.3079 15.9444 32.1721 21.1186 32.1052 25.6319C32.0991 26.0191 32.2289 26.3597 32.4823 26.6172C32.758 26.897 33.1696 27.0572 33.6076 27.0572C34.3618 27.0572 35.1323 26.5706 35.1465 25.642C35.1809 23.3185 35.26 20.6381 35.335 18.0449C35.3877 16.2627 35.4283 14.7907 35.4607 13.4242C35.4709 13.0167 35.483 12.601 35.4972 12.1813C36.1663 14.0223 36.9591 15.3767 37.987 16.4351C38.2364 16.6925 38.6358 16.8446 39.0555 16.8446C39.3617 16.8446 39.6496 16.7595 39.8625 16.6054C41.2675 15.5977 42.2245 13.9757 43.074 12.376C43.0315 12.8099 42.9909 13.2437 42.9504 13.6776C42.8003 15.2733 42.6118 17.0616 42.4293 18.791L42.4212 18.8721C42.1434 21.4998 41.8575 24.2187 41.6629 26.5949C41.6325 26.9781 41.7379 27.3147 41.9711 27.5681C42.2225 27.8398 42.6138 27.998 43.0436 27.998C43.81 28 44.6251 27.5114 44.7001 26.5787Z"
        fill="#DA254E"
      />
      <path
        d="M49.5421 24.9389C50.1929 22.9033 50.7951 20.8372 51.2472 19.2618C52.8793 18.4285 54.3696 17.6763 55.803 16.9667C56.7803 20.1519 57.8346 22.9945 59.0247 25.6546C59.2518 26.1635 59.8114 26.492 60.4521 26.492C60.7542 26.492 61.0523 26.4149 61.2895 26.277C62.0478 25.833 62.2911 24.9429 61.8957 24.0589C60.7846 21.5732 59.7688 18.7752 58.7936 15.5069C59.6087 15.1156 60.3406 14.7668 61.03 14.4424C61.697 14.1282 62.0133 13.5057 61.8592 12.8123C61.7071 12.1311 61.0583 11.4052 60.1561 11.4052C59.9087 11.4052 59.6614 11.462 59.4201 11.5755C58.9153 11.8127 58.4043 12.054 57.8873 12.3034C57.5021 10.8679 57.1209 9.32701 56.6485 7.32179C56.4924 6.65677 56.32 5.97755 56.1193 5.24764C56.0402 4.96176 55.9713 4.6698 55.9085 4.35351L55.8943 4.27646C56.0889 3.81014 56.0524 3.31137 55.7929 2.86734C55.507 2.37871 54.9028 2.03809 54.3229 2.03809C54.0229 2.03809 53.7431 2.1273 53.514 2.29761C53.0801 2.61796 52.8084 3.02549 52.6807 3.54048L52.6239 3.52426L52.557 3.82838C51.0728 7.85503 49.8867 12.0256 48.7412 16.0584L48.4736 16.9951L48.358 17.0539C48.2647 17.0843 48.1694 17.1248 48.0762 17.1735C47.9687 17.2303 47.8694 17.287 47.7741 17.3418C47.6828 17.3945 47.5896 17.4472 47.4963 17.4979L47.2084 17.6459L47.2206 17.6723C46.7441 18.0433 46.5555 18.5968 46.7035 19.197C46.8151 19.6531 47.1172 20.0668 47.5166 20.3121C47.0969 21.7334 46.736 22.9195 46.3771 24.0427C46.1744 24.6794 46.369 25.1355 46.5657 25.4072C46.8718 25.8269 47.4111 26.0865 47.9748 26.0865C48.727 26.0824 49.313 25.6546 49.5421 24.9389ZM52.4759 14.9574C52.8672 13.5949 53.3781 11.829 53.9458 10.0083L53.9742 10.1299C54.1567 10.9186 54.3635 11.8107 54.5926 12.6907C54.6859 13.0536 54.7832 13.4104 54.8805 13.7632C54.1182 14.1363 53.3315 14.5276 52.4759 14.9574Z"
        fill="#DA254E"
      />
      <path
        d="M71.8429 20.2753C71.5712 20.2753 71.3036 20.3462 71.0441 20.4861C69.6897 21.2221 68.5989 21.6905 67.502 22.0068C66.9261 22.173 66.3523 22.2582 65.7522 22.2663C65.7461 22.2663 65.7279 22.2643 65.6914 22.2561C65.6103 21.802 65.7258 21.1552 65.8191 20.6301C65.9813 19.7217 66.1658 18.6918 66.3179 17.6496C67.1836 11.6705 67.6479 6.87135 67.8264 2.08641C67.8426 1.6363 67.7027 1.24499 67.4209 0.953029C67.1269 0.648901 66.693 0.476562 66.2307 0.476562C65.4197 0.476562 64.5762 1.02196 64.5377 2.06411C64.3086 8.26222 63.7693 13.5682 62.8346 18.7668C62.8042 18.9351 62.7697 19.1074 62.7352 19.296L62.721 19.3629C62.3439 21.3073 61.8735 23.7241 63.7977 25.0115C64.3573 25.3866 65.0345 25.5691 65.8657 25.5691C66.622 25.5691 67.3823 25.417 68.0899 25.2548C69.7302 24.8757 71.2691 24.1093 72.6884 23.3368C73.3554 22.9739 73.6454 22.3271 73.4609 21.6053C73.2926 20.9443 72.6823 20.2753 71.8429 20.2753Z"
        fill="#DA254E"
      />
      <path
        d="M128.338 21.3111C128.297 21.3091 128.255 21.3091 128.214 21.3091C126.878 21.3091 126.156 22.3796 126.132 23.436C126.109 24.4538 126.73 25.577 128.147 25.6399C128.186 25.6419 128.222 25.6419 128.259 25.6419C129.601 25.6419 130.329 24.5714 130.351 23.515C130.371 22.4972 129.751 21.3719 128.338 21.3111Z"
        fill="#DA254E"
      />
      <path
        d="M111.903 9.24747C111.451 6.02169 109.474 3.25616 106.743 2.03154C105.802 1.60779 104.78 1.38477 103.784 1.38477C101.872 1.38477 100.204 2.17955 99.0907 3.61909C98.742 4.0692 98.4804 4.48281 98.2696 4.92075C97.9958 5.48643 98.0263 6.08658 98.3527 6.60765C98.598 6.99896 98.9711 7.28484 99.403 7.41663C99.3239 9.85775 99.3056 12.378 99.3502 14.9124C99.3827 16.6905 99.4496 18.793 99.701 20.9158L99.7436 21.2808C99.4719 21.3112 99.2083 21.3315 98.9549 21.3375C97.8519 21.3639 97.2842 22.2459 97.2943 23.1035C97.3024 23.9044 97.8195 24.7661 98.9305 24.7661L98.9731 24.7641C99.4841 24.7519 100.017 24.7032 100.555 24.6181C100.646 24.7924 100.735 24.9384 100.836 25.0702C101.22 25.5832 101.759 25.8772 102.314 25.8772C102.604 25.8772 102.886 25.7981 103.152 25.642C103.563 25.4027 103.88 24.9445 103.981 24.4478C104.042 24.1517 104.022 23.8598 103.924 23.5982C105.715 22.773 107.351 21.5221 108.661 19.9811C111.248 16.9318 112.43 13.0187 111.903 9.24747ZM102.935 4.90251C103.245 4.79505 103.393 4.7768 103.693 4.7768L103.886 4.77883C104.275 4.78288 104.579 4.86398 105.039 5.0201C106.739 5.59389 108.105 7.42474 108.523 9.68339C108.993 12.236 108.067 15.3807 106.163 17.6941C105.303 18.7403 104.23 19.6202 103.059 20.2427C102.856 18.3287 102.801 16.3641 102.773 14.5231C102.716 11.2547 102.773 8.0188 102.935 4.90251Z"
        fill="#DA254E"
      />
      <path
        d="M123.93 15.9888C123.676 13.6936 123.413 11.3214 122.973 9.01007C122.669 7.41239 122.32 5.71942 121.716 4.1116C121.444 3.38574 121.154 2.69233 120.607 2.19356C120.197 1.8205 119.68 1.61572 119.147 1.61572C118.573 1.61572 118.042 1.85294 117.653 2.28278C117.211 2.77141 117.081 3.39791 117.298 4.00414C117.3 4.01427 117.306 4.02441 117.308 4.03455C117.282 4.08524 117.261 4.1339 117.241 4.18661C116.627 5.83296 116.071 7.5158 115.534 9.14592L115.53 9.15808C114.934 10.9687 114.39 12.5988 113.78 14.2147C112.947 14.4823 112.726 15.2285 112.793 15.7921C112.813 15.9685 112.866 16.149 112.947 16.3172C112.665 17.0046 112.344 17.8014 112.097 18.5901C111.759 19.6586 111.369 21.234 111.888 22.5924C112.176 23.3426 112.807 23.8089 113.533 23.8089C113.683 23.8089 113.833 23.7886 113.983 23.7481C114.435 23.6224 114.857 23.2696 115.082 22.8256C115.284 22.4241 115.315 21.9882 115.167 21.5989C114.901 20.9055 115.234 19.9546 115.526 19.1152L115.595 18.9165C115.824 18.2495 116.099 17.5885 116.365 16.9498L116.436 16.7755C117.608 16.5281 118.835 16.301 120.524 16.0172L120.609 16.7815C120.929 19.6991 121.26 22.7161 121.963 25.6296C122.148 26.3981 122.748 26.8765 123.526 26.8765C124.088 26.8765 124.643 26.6109 124.98 26.1852C125.203 25.9013 125.436 25.4228 125.272 24.7456C124.585 21.8787 124.252 18.8861 123.93 15.9888ZM120.157 12.9556C119.218 13.1117 118.439 13.2496 117.717 13.3814C118.084 12.3291 118.445 11.2403 118.784 10.2144L118.82 10.1009C118.983 9.61225 119.171 9.04049 119.368 8.45251C119.522 9.15606 119.674 9.93868 119.83 10.8369C119.869 11.0579 119.905 11.2789 119.94 11.4978C119.954 11.587 119.968 11.6763 119.98 11.7675L120.023 12.0615C120.033 12.1345 120.041 12.1912 120.045 12.2136C120.086 12.4589 120.122 12.7062 120.157 12.9556Z"
        fill="#DA254E"
      />
      <path
        d="M129.957 11.4027C129.978 11.1067 129.996 10.7985 130.016 10.468L130.018 10.4356C130.059 9.76246 130.089 9.36507 130.109 9.07716L130.116 9.00823C130.156 8.48513 130.18 8.16681 130.219 6.96652C130.223 6.85095 130.227 6.73335 130.233 6.61373L130.239 6.42923C130.288 5.23705 130.337 4.00635 130.026 2.86283C129.773 1.93017 129.002 1.59766 128.366 1.59766C127.8 1.59766 127.253 1.85515 126.936 2.26876C126.727 2.54248 126.515 3.00475 126.693 3.66167C126.742 3.84009 126.768 4.02865 126.786 4.18477L126.792 4.29223C126.805 4.47267 126.809 4.64907 126.813 4.79708C126.837 5.61822 126.811 6.43125 126.78 7.26051C126.738 8.45269 126.705 8.86427 126.661 9.44009V9.45631C126.632 9.82532 126.596 10.2856 126.547 11.1128L126.506 11.7738C126.419 13.193 126.358 14.221 126.375 15.8288C126.375 15.9119 126.375 16.0032 126.375 16.0985V16.1329C126.373 17.4244 126.373 19.5838 128.019 19.8412C128.163 19.8635 128.303 19.8737 128.433 19.8737C128.998 19.8737 129.43 19.673 129.718 19.2776C130.18 18.6369 130.053 17.7063 129.903 17.2562C129.868 17.1487 129.85 17.0169 129.84 16.9318C129.84 16.9196 129.838 16.877 129.832 16.8182L129.83 16.7878C129.824 16.7331 129.82 16.6763 129.817 16.652C129.807 16.4958 129.803 16.3397 129.799 16.1856V16.1491C129.791 15.7842 129.793 15.403 129.797 15.0806C129.82 13.6208 129.878 12.6902 129.957 11.4027Z"
        fill="#DA254E"
      />
      <path
        d="M152.238 2.49561C151.745 2.49561 151.315 2.71863 151.05 3.11197L150.993 3.09778L150.871 3.47287C150.224 5.34021 149.46 7.20958 148.649 9.19046L148.641 9.21074C148.298 10.0481 148.012 10.7476 147.735 11.441C147.005 10.3928 146.251 9.27359 145.433 8.02464C145.15 7.59075 145 7.39003 144.878 7.22986C144.726 7.02508 144.614 6.87707 144.288 6.32153C144.04 5.90386 143.822 5.51255 143.619 5.12327C143.544 4.97931 143.467 4.82319 143.388 4.65086L143.355 4.57381C143.333 4.51907 143.315 4.46027 143.298 4.40147C143.108 3.78713 142.593 3.40393 141.954 3.40393C141.476 3.40393 141.015 3.62696 140.748 3.98786C140.571 4.2271 140.399 4.63058 140.579 5.20842L140.586 5.22262C141.34 6.94803 141.711 7.51776 142.528 8.7586C142.644 8.935 142.763 9.1195 142.897 9.32225L142.905 9.33239C144.17 11.2788 145.354 13.0063 146.522 14.612C145.223 18.2291 144.537 21.1589 144.367 23.8372C144.343 24.2286 144.458 24.5712 144.699 24.8287C144.947 25.0943 145.32 25.2464 145.721 25.2464C146.415 25.2464 147.147 24.78 147.203 23.89C147.493 19.2875 149.45 14.5776 151.342 10.0197L151.356 9.98322C151.986 8.46259 152.585 7.02508 153.124 5.58351C153.213 5.45983 153.286 5.31994 153.335 5.16382C153.385 5.00973 153.428 4.85563 153.475 4.68532C153.513 4.54745 153.554 4.40553 153.598 4.2636C153.779 3.71009 153.612 3.31067 153.44 3.07345C153.179 2.71863 152.716 2.49561 152.238 2.49561Z"
        fill="#DA254E"
      />
      <path
        d="M141.281 19.8452C141.008 19.8452 140.736 19.9162 140.475 20.0601C139.23 20.7373 138.228 21.1671 137.224 21.4551C136.728 21.597 136.235 21.674 135.716 21.6882C135.68 21.307 135.771 20.788 135.846 20.3622L135.854 20.3196C136.004 19.4823 136.174 18.5314 136.312 17.5805C137.087 12.2258 137.547 7.37801 137.719 2.75933C137.733 2.30314 137.591 1.90372 137.304 1.60567C137.005 1.29749 136.568 1.12109 136.099 1.12109C135.28 1.12109 134.429 1.67258 134.39 2.72689C134.218 7.40639 133.699 12.5928 132.805 18.58C132.772 18.8051 132.729 19.0443 132.679 19.3322C132.363 21.0962 131.971 23.292 133.762 24.4902C134.303 24.8532 134.956 25.0296 135.755 25.0296C136.47 25.0296 137.182 24.8876 137.845 24.7356C139.378 24.3808 140.813 23.6671 142.135 22.9493C142.814 22.5803 143.106 21.9194 142.92 21.1854C142.747 20.5183 142.131 19.8452 141.281 19.8452Z"
        fill="#DA254E"
      />
    </svg>