<svg width="32" height="32" viewBox="0 0 32 32" fill="none" xmlns="http://www.w3.org/2000/svg">
<circle cx="16" cy="16.001" r="16" fill="#7C41C5"/>
<path d="M20.4 11.601H20.408M12 8.00098H20C22.2091 8.00098 24 9.79184 24 12.001V20.001C24 22.2101 22.2091 24.001 20 24.001H12C9.79086 24.001 8 22.2101 8 20.001V12.001C8 9.79184 9.79086 8.00098 12 8.00098ZM19.2 15.497C19.2987 16.1628 19.185 16.8427 18.875 17.4402C18.565 18.0376 18.0745 18.5221 17.4733 18.8247C16.8721 19.1273 16.1908 19.2327 15.5262 19.1257C14.8617 19.0188 14.2478 18.705 13.7719 18.2291C13.2959 17.7532 12.9822 17.1393 12.8753 16.4747C12.7683 15.8102 12.8737 15.1289 13.1763 14.5277C13.4789 13.9265 13.9633 13.436 14.5608 13.126C15.1582 12.816 15.8382 12.7022 16.504 12.801C17.1831 12.9017 17.8119 13.2181 18.2974 13.7036C18.7828 14.1891 19.0993 14.8178 19.2 15.497Z" stroke="white" stroke-width="1.5" stroke-linecap="round" stroke-linejoin="round"/>
</svg>
