<svg width="32" height="32" viewBox="0 0 32 32" fill="none" xmlns="http://www.w3.org/2000/svg">
<circle cx="16" cy="16.001" r="16" fill="#55ACEE"/>
<path d="M24 10.5402C23.4113 10.8013 22.7787 10.9777 22.1147 11.0571C22.7924 10.6508 23.3129 10.0075 23.558 9.24098C22.9237 9.61719 22.2212 9.89035 21.4735 10.0375C20.8747 9.39957 20.0216 9.00098 19.0775 9.00098C17.2646 9.00098 15.7948 10.4706 15.7948 12.2834C15.7948 12.5407 15.8239 12.7912 15.8798 13.0315C13.1517 12.8946 10.733 11.5878 9.11396 9.60176C8.8314 10.0866 8.6695 10.6504 8.6695 11.252C8.6695 12.3909 9.24899 13.3957 10.1298 13.9843C9.59171 13.9672 9.08556 13.8196 8.64303 13.5737C8.64272 13.5874 8.64272 13.6011 8.64272 13.615C8.64272 15.2054 9.77424 16.5321 11.2759 16.8337C11.0005 16.9087 10.7104 16.9489 10.4111 16.9489C10.1995 16.9489 9.9939 16.9283 9.79343 16.89C10.2112 18.194 11.4234 19.1432 12.8599 19.1696C11.7364 20.0501 10.321 20.5748 8.78306 20.5748C8.51809 20.5748 8.25681 20.5593 8 20.5289C9.45268 21.4603 11.1781 22.0038 13.0319 22.0038C19.0697 22.0038 22.3715 17.0019 22.3715 12.6641C22.3715 12.5217 22.3683 12.3802 22.3619 12.2394C23.0034 11.7766 23.5599 11.1984 24 10.5402Z" fill="white"/>
</svg>
