<svg width="32" height="32" viewBox="0 0 32 32" fill="none" xmlns="http://www.w3.org/2000/svg">
<circle cx="16" cy="16.001" r="16" fill="#D42428"/>
<path fill-rule="evenodd" clip-rule="evenodd" d="M13.7694 18.214L13.7686 13.4202L18.3787 15.8255L13.7694 18.214ZM23.8911 12.5897C23.8911 12.5897 23.7244 11.414 23.2129 10.8963C22.5641 10.2167 21.8369 10.2133 21.5034 10.1736C19.1159 10.001 15.5345 10.001 15.5345 10.001H15.527C15.527 10.001 11.9457 10.001 9.55814 10.1736C9.22462 10.2133 8.49766 10.2167 7.84864 10.8963C7.33709 11.414 7.17062 12.5897 7.17062 12.5897C7.17062 12.5897 7 13.9704 7 15.3511V16.6455C7 18.0261 7.17062 19.4068 7.17062 19.4068C7.17062 19.4068 7.33709 20.5826 7.84864 21.1003C8.49766 21.7798 9.3502 21.7584 9.72991 21.8296C11.0949 21.9605 15.5308 22.001 15.5308 22.001C15.5308 22.001 19.1159 21.9956 21.5034 21.823C21.8369 21.7832 22.5641 21.7798 23.2129 21.1003C23.7244 20.5826 23.8911 19.4068 23.8911 19.4068C23.8911 19.4068 24.0615 18.0261 24.0615 16.6455V15.3511C24.0615 13.9704 23.8911 12.5897 23.8911 12.5897Z" fill="white"/>
</svg>
